<?xml version="1.0" encoding="utf-8"?>
<!-- Generator: Adobe Illustrator 16.0.0, SVG Export Plug-In . SVG Version: 6.00 Build 0)  -->
<!DOCTYPE svg PUBLIC "-//W3C//DTD SVG 1.1//EN" "http://www.w3.org/Graphics/SVG/1.1/DTD/svg11.dtd">
<svg version="1.1" id="Capa_1" xmlns="http://www.w3.org/2000/svg" xmlns:xlink="http://www.w3.org/1999/xlink" x="0px" y="0px"
	 width="80px" height="80px" viewBox="0 0 80 80" enable-background="new 0 0 80 80" xml:space="preserve">
<path fill="#DE9E37" d="M29.682,7.729c-4.347,0.887-8.784,4.348-9.316,7.187c-0.443,2.307,0,6.033,0.887,7.808
	c1.065,2.218,3.549,4.613,5.678,5.5c2.573,1.154,4.88,1.331,8.163,0.799c2.396-0.355,2.928-0.355,3.283,0.089
	c0.532,0.976,0.443,1.242-1.242,2.839c-3.637,3.46-10.469,4.259-15.171,1.863c-4.17-2.129-7.187-5.678-8.251-10.026
	c-0.443-1.686-0.532-1.774-1.597-1.508c-3.283,0.799-7.187,4.259-8.961,7.896C2.089,32.306,2,32.927,2,36.653
	c0,3.815,0.089,4.348,1.331,6.832c1.597,3.283,4.17,5.767,7.453,7.275c2.041,0.976,2.839,1.153,6.21,1.153s4.259-0.178,6.299-1.153
	c2.396-1.153,2.396-1.153,2.129-0.178c-1.952,7.01,1.242,14.196,7.719,17.39c2.218,1.153,3.638,1.42,6.743,1.42
	c7.453,0,13.664-5.855,14.285-13.22l0.178-2.573h3.814c7.896-0.089,14.729-4.17,18.277-10.913c1.863-3.371,2.484-6.033,2.484-10.38
	c0-9.76-6.566-17.833-16.236-20.14c-4.969-1.153-11.535-0.089-15.439,2.484c-0.887,0.533-1.686,1.065-1.861,1.065
	c-0.178,0-0.889-0.887-1.598-1.863C41.039,9.238,34.917,6.665,29.682,7.729z"/>
</svg>
